<svg width="113" height="112" viewBox="0 0 113 112" fill="none" xmlns="http://www.w3.org/2000/svg">
<circle cx="56.4863" cy="56" r="56" fill="#ECF0FF"/>
<path d="M32.8005 83.2353V71.9713C32.8005 71.5476 32.8336 71.1253 32.9271 70.712C34.2909 64.6835 40.627 53.7505 56.4865 53.7505C72.346 53.7505 78.6821 64.6835 80.0459 70.712C80.1394 71.1253 80.1725 71.5476 80.1725 71.9713V83.2353C80.1725 87.1833 76.9719 90.3838 73.0239 90.3838H39.9491C36.0011 90.3838 32.8005 87.1833 32.8005 83.2353Z" fill="white"/>
<circle cx="56.4866" cy="35.1757" r="13.559" fill="white"/>
<circle cx="94.9863" cy="94.5" r="16.335" fill="#999999" stroke="white" stroke-width="2.33005"/>
<path d="M94.9863 92.125C93.6991 92.125 92.6113 93.2127 92.6113 94.5C92.6113 95.7873 93.6991 96.875 94.9863 96.875C96.2736 96.875 97.3613 95.7873 97.3613 94.5C97.3613 93.2127 96.2736 92.125 94.9863 92.125Z" fill="white"/>
<path d="M101.32 88.9585H99.2726L97.1295 86.8155C96.9811 86.667 96.7798 86.5835 96.5698 86.5835H93.4032C93.1932 86.5835 92.9919 86.667 92.8434 86.8155L90.7004 88.9585H88.6532C87.7799 88.9585 87.0698 89.6686 87.0698 90.5418V99.2502C87.0698 100.123 87.7799 100.833 88.6532 100.833H101.32C102.193 100.833 102.903 100.123 102.903 99.2502V90.5418C102.903 89.6686 102.193 88.9585 101.32 88.9585ZM94.9865 98.4585C92.8411 98.4585 91.0282 96.6456 91.0282 94.5002C91.0282 92.3547 92.8411 90.5418 94.9865 90.5418C97.1319 90.5418 98.9448 92.3547 98.9448 94.5002C98.9448 96.6456 97.1319 98.4585 94.9865 98.4585Z" fill="white"/>
</svg>
